<svg width="50" height="50" viewBox="0 0 50 50" fill="none" xmlns="http://www.w3.org/2000/svg">
<path d="M46.8839 34.1538C46.6698 33.4346 46.2601 32.8131 45.7042 32.3474C46.6947 31.429 47.1449 29.978 46.7267 28.5703C46.5128 27.8516 46.1029 27.2302 45.5472 26.7648C46.5382 25.8462 46.9884 24.3949 46.5694 22.9873C46.3424 22.2244 45.8893 21.5779 45.2804 21.1043C46.2751 20.0654 46.5137 18.6941 46.1524 17.481C45.5682 15.5175 43.5522 14.4006 41.6505 14.9717L37.1935 16.3091L36.5157 14.1614C38.3744 11.8716 38.7838 9.05406 37.9894 6.54346C37.0538 3.58496 34.5675 1.46338 31.503 1.00684C31.1603 0.956546 30.8175 1.08497 30.5948 1.34717C30.3712 1.60987 30.298 1.96875 30.4025 2.29785L31.8009 6.71826L27.7745 8.04053L26.38 3.63233C26.2755 3.30128 26.0069 3.04835 25.67 2.96387C25.3312 2.8794 24.9757 2.97608 24.7286 3.21875C22.5021 5.39258 21.7013 8.58398 22.6398 11.5474C23.2989 13.6309 24.7286 15.3203 26.6661 16.3032C26.8275 16.3854 26.9952 16.4412 27.1598 16.5115L22.38 17.9458C21.0206 18.353 19.7501 19.0771 18.7062 20.0386L17.8592 20.8175C17.4173 19.9409 16.3961 19.4692 15.4015 19.7495L3.66612 23.3438C3.1378 23.5054 2.84092 24.0645 3.00303 24.5928C3.16514 25.1201 3.7208 25.417 4.25205 25.2559L9.6207 23.6116L15.9581 44.5156L7.58505 47.0464C7.05575 47.2061 6.75692 47.7642 6.91708 48.293C7.07799 48.8243 7.63936 49.1208 8.16317 48.9605L22.7989 44.5371C23.7354 44.2405 24.3148 43.3613 24.2586 42.4078L30.3604 42.1714C32.2457 42.0989 34.1178 41.794 35.9342 41.2822L37.1593 45.2817C37.8738 47.6188 40.3641 48.9059 42.6778 48.1499C44.9229 47.4185 46.1866 44.9873 45.4952 42.7305L44.2887 38.7886L44.4903 38.728C46.3907 38.1577 47.464 36.1055 46.8839 34.1538ZM24.546 10.9439C24.0196 9.27932 24.2188 7.51906 25.047 6.04983L26.173 9.60794C26.253 9.86233 26.4327 10.0742 26.67 10.1963C26.9083 10.3179 27.1847 10.3389 27.4376 10.2564L33.3644 8.31009C33.8858 8.13919 34.172 7.5806 34.006 7.05814L32.8751 3.48197C34.3888 4.18314 35.5587 5.49027 36.0831 7.14701C36.7954 9.40173 36.1352 11.7316 34.6749 13.2593C34.4684 13.4743 34.3435 13.9197 34.4464 14.2491L35.277 16.8841L32.2345 17.7969C31.7711 17.0598 31.052 16.4891 30.1105 16.2242L29.9503 15.7149C29.819 15.2986 29.4405 15.0379 29.0265 15.0254C28.5338 14.9246 28.0453 14.7615 27.5714 14.5206C26.1163 13.7818 25.0421 12.5117 24.546 10.9439ZM22.2081 42.6265L17.8727 43.937L11.5331 23.0259C16.0177 21.6926 16.0349 21.5604 16.0812 21.7271C16.7685 24.0524 17.8923 27.8218 22.0294 41.7417C22.0313 41.7488 22.0365 41.7541 22.0387 41.761L22.2657 42.5044C22.2813 42.5625 22.254 42.6118 22.2081 42.6265ZM43.5831 43.3159C43.9571 44.5371 43.2726 45.8526 42.0577 46.2486C40.7962 46.6585 39.4558 45.9542 39.0714 44.6963L37.8536 40.7195L42.3736 39.3633L43.5831 43.3159ZM43.9161 36.812C43.7239 36.8697 35.9054 39.2158 36.3285 39.0889C36.3219 39.0908 36.3153 39.0889 36.3087 39.0908C36.3023 39.0928 36.2984 39.0977 36.2923 39.0997L35.7491 39.2627C33.9737 39.7954 32.1348 40.1016 30.2833 40.1733L23.7301 40.427L20.6541 30.095L18.5225 22.9248L20.0597 21.5103C20.8829 20.7524 21.8839 20.1826 22.9542 19.8618L28.6475 18.1533C29.5262 17.8857 30.4684 18.3898 30.7335 19.2881C30.8097 19.543 30.9835 19.7568 31.2169 19.8833C31.4513 20.0102 31.7267 20.0376 31.9796 19.9614L36.8101 18.5122C36.8194 18.5095 36.8287 18.5107 36.838 18.5078C36.8438 18.5059 36.848 18.5011 36.8538 18.499L42.2247 16.8877C43.0556 16.6413 43.9622 17.1341 44.2354 18.0518C44.5103 18.9757 44.0012 19.8931 43.1856 20.1382C43.0848 20.1685 38.5048 21.5454 38.6056 21.5151C38.0763 21.6738 37.7765 22.2314 37.9347 22.7603C38.0929 23.2891 38.6466 23.5894 39.1798 23.4312L42.6407 22.3931C43.4593 22.1491 44.3774 22.6314 44.6534 23.5576C44.92 24.4551 44.4483 25.3921 43.6026 25.646C43.3554 25.7202 38.5227 27.1702 38.7628 27.0981C38.2335 27.2568 37.9337 27.8145 38.0919 28.3438C38.2501 28.8721 38.8067 29.1714 39.337 29.0142L42.797 27.9761C43.6368 27.7258 44.5415 28.2358 44.8097 29.1401C45.0763 30.0381 44.6056 30.9756 43.7599 31.229C43.6594 31.2591 38.6208 32.7709 38.92 32.6812C38.3907 32.8398 38.0909 33.3975 38.2491 33.9268C38.4073 34.4551 38.964 34.7529 39.4943 34.5972L42.9542 33.5591C43.7678 33.3166 44.6892 33.792 44.9669 34.7236C45.2335 35.6211 44.7618 36.5581 43.9161 36.812Z" fill="#922E31"/>
</svg>
