<svg width="50" height="50" viewBox="0 0 50 50" fill="none" xmlns="http://www.w3.org/2000/svg">
<g clip-path="url(#clip0_2112_46)">
<path d="M3.125 37.5C3.39175 37.4974 3.65605 37.4488 3.90625 37.3563V45.0383C3.40397 45.6461 3.12788 46.4092 3.125 47.1977V48.4375C3.125 48.6447 3.20731 48.8434 3.35382 48.9899C3.50034 49.1364 3.69905 49.2188 3.90625 49.2188H14.8438C15.051 49.2188 15.2497 49.1364 15.3962 48.9899C15.5427 48.8434 15.625 48.6447 15.625 48.4375V47.1992C15.6223 46.4102 15.3463 45.6466 14.8438 45.0383V25.7812H17.1875C17.3947 25.7812 17.5934 25.6989 17.7399 25.5524C17.8864 25.4059 17.9688 25.2072 17.9688 25V24.2188H21.0938V42.9688C21.0938 43.1759 21.1761 43.3747 21.3226 43.5212C21.4691 43.6677 21.6678 43.75 21.875 43.75H25C25.2072 43.75 25.4059 43.6677 25.5524 43.5212C25.6989 43.3747 25.7812 43.1759 25.7812 42.9688V24.075C26.2379 23.9159 26.6338 23.6186 26.9139 23.2244C27.194 22.8302 27.3445 22.3586 27.3445 21.875C27.3445 21.3914 27.194 20.9198 26.9139 20.5256C26.6338 20.1314 26.2379 19.8341 25.7812 19.675V15.625H32.8125V17.9688C32.8125 18.176 32.8948 18.3747 33.0413 18.5212C33.1878 18.6677 33.3866 18.75 33.5938 18.75H43.75C43.9572 18.75 44.1559 18.6677 44.3024 18.5212C44.4489 18.3747 44.5312 18.176 44.5312 17.9688V6.25C44.5312 6.0428 44.4489 5.84409 44.3024 5.69757C44.1559 5.55106 43.9572 5.46875 43.75 5.46875H35.9375V3.125C35.9375 2.9178 35.8552 2.71909 35.7087 2.57257C35.5622 2.42606 35.3634 2.34375 35.1562 2.34375H25.7812V1.5625C25.7812 1.3553 25.6989 1.15659 25.5524 1.01007C25.4059 0.86356 25.2072 0.78125 25 0.78125H21.875C21.6678 0.78125 21.4691 0.86356 21.3226 1.01007C21.1761 1.15659 21.0938 1.3553 21.0938 1.5625V19.5312H17.2961L13.1781 18.3547C13.4356 17.9963 13.6413 17.6033 13.7891 17.1875H14.0625C14.5365 17.1892 14.9997 17.0467 15.3907 16.7788C15.7818 16.5109 16.082 16.1304 16.2516 15.6878C16.4211 15.2452 16.452 14.7615 16.3401 14.301C16.2282 13.8404 15.9788 13.4248 15.625 13.1094V10.1562C15.6243 9.65861 15.4656 9.17405 15.1717 8.77246C14.8778 8.37087 14.464 8.07302 13.9898 7.92188C13.8359 7.22678 13.4497 6.60493 12.8947 6.15895C12.3398 5.71297 11.6494 5.46951 10.9375 5.46875H7.03125C5.99563 5.46999 5.00278 5.88194 4.27048 6.61423C3.53819 7.34653 3.12624 8.33938 3.125 9.375V13.1094C2.77123 13.4248 2.52181 13.8404 2.40989 14.301C2.29798 14.7615 2.32886 15.2452 2.49843 15.6878C2.66801 16.1304 2.96825 16.5109 3.35926 16.7788C3.75027 17.0467 4.21354 17.1892 4.6875 17.1875H4.96094C5.10871 17.6033 5.31438 17.9963 5.57188 18.3547L5.10313 18.4883C3.86015 18.848 2.7672 19.6008 1.98804 20.6339C1.20888 21.667 0.785471 22.9248 0.78125 24.2188V35.1562C0.78125 35.7779 1.02818 36.374 1.46772 36.8135C1.90726 37.2531 2.5034 37.5 3.125 37.5ZM3.125 35.9375C2.9178 35.9375 2.71909 35.8552 2.57257 35.7087C2.42606 35.5622 2.34375 35.3634 2.34375 35.1562V27.3438H3.90625V35.1562C3.90625 35.3634 3.82394 35.5622 3.67743 35.7087C3.53091 35.8552 3.3322 35.9375 3.125 35.9375ZM5.46875 33.5938H13.2812V44.5312H10.1562V35.9375H8.59375V44.5312H5.46875V33.5938ZM4.6875 47.1984C4.68869 46.8009 4.81618 46.4141 5.05156 46.0938H8.59375V47.6562H4.6875V47.1984ZM14.0625 47.6562H10.1562V46.0938H13.6984C13.9338 46.4141 14.0613 46.8009 14.0625 47.1984V47.6562ZM22.6562 42.1875V24.2188H24.2188V42.1875H22.6562ZM25 22.6562H17.9688V21.0938H25C25.2072 21.0938 25.4059 21.1761 25.5524 21.3226C25.6989 21.4691 25.7812 21.6678 25.7812 21.875C25.7812 22.0822 25.6989 22.2809 25.5524 22.4274C25.4059 22.5739 25.2072 22.6562 25 22.6562ZM35.9375 14.8438V7.03125H42.9688V17.1875H34.375V15.625H35.1562C35.3634 15.625 35.5622 15.5427 35.7087 15.3962C35.8552 15.2497 35.9375 15.051 35.9375 14.8438ZM34.375 3.90625V14.0625H25.7812V3.90625H34.375ZM22.6562 2.34375H24.2188V19.5312H22.6562V2.34375ZM9.375 18.75C8.5462 18.75 7.75134 18.4208 7.16529 17.8347C6.57924 17.2487 6.25 16.4538 6.25 15.625V13.2812H7.68594C8.36626 13.2819 9.03658 13.1174 9.63928 12.8018C10.242 12.4862 10.7591 12.029 11.1461 11.4695L12.5 12.8234V15.625C12.5 16.4538 12.1708 17.2487 11.5847 17.8347C10.9987 18.4208 10.2038 18.75 9.375 18.75ZM9.375 20.3125C9.87055 20.3123 10.3629 20.2332 10.8336 20.0781C10.7236 20.3764 10.5248 20.6337 10.264 20.8155C10.0031 20.9973 9.69289 21.0947 9.375 21.0947C9.05711 21.0947 8.74685 20.9973 8.48605 20.8155C8.22525 20.6337 8.02644 20.3764 7.91641 20.0781C8.38708 20.2332 8.87945 20.3123 9.375 20.3125ZM14.0625 15.625V14.0625C14.2697 14.0625 14.4684 14.1448 14.6149 14.2913C14.7614 14.4378 14.8438 14.6365 14.8438 14.8438C14.8438 15.051 14.7614 15.2497 14.6149 15.3962C14.4684 15.5427 14.2697 15.625 14.0625 15.625ZM4.6875 9.375C4.6875 8.7534 4.93443 8.15726 5.37397 7.71772C5.81351 7.27818 6.40965 7.03125 7.03125 7.03125H10.9375C11.3519 7.03125 11.7493 7.19587 12.0424 7.4889C12.3354 7.78192 12.5 8.17935 12.5 8.59375C12.5 8.80095 12.5823 8.99966 12.7288 9.14618C12.8753 9.29269 13.074 9.375 13.2812 9.375C13.4885 9.375 13.6872 9.45731 13.8337 9.60382C13.9802 9.75034 14.0625 9.94905 14.0625 10.1562V12.5C14.0625 12.2928 13.9801 12.0941 13.8336 11.9477L11.4898 9.60391C11.3957 9.5097 11.279 9.44114 11.1509 9.40473C11.0227 9.36833 10.8874 9.36528 10.7578 9.39589C10.6282 9.4265 10.5085 9.48974 10.4102 9.57961C10.3119 9.66949 10.2382 9.783 10.1961 9.90938C10.0209 10.4365 9.68409 10.895 9.23348 11.2198C8.78288 11.5446 8.2414 11.7192 7.68594 11.7188H5.46875C5.26155 11.7188 5.06284 11.8011 4.91632 11.9476C4.76981 12.0941 4.6875 12.2928 4.6875 12.5V9.375ZM3.90625 14.8438C3.90625 14.6365 3.98856 14.4378 4.13507 14.2913C4.28159 14.1448 4.4803 14.0625 4.6875 14.0625V15.625C4.4803 15.625 4.28159 15.5427 4.13507 15.3962C3.98856 15.2497 3.90625 15.051 3.90625 14.8438ZM2.34375 24.2188C2.34689 23.2639 2.65944 22.3357 3.23453 21.5735C3.80962 20.8112 4.61628 20.2558 5.53359 19.9906L6.275 19.7789C6.33329 20.5612 6.68519 21.2925 7.26013 21.8262C7.83507 22.3599 8.59053 22.6565 9.375 22.6565C10.1595 22.6565 10.9149 22.3599 11.4899 21.8262C12.0648 21.2925 12.4167 20.5612 12.475 19.7789L16.4062 20.9016V24.2188H14.0625C13.8553 24.2188 13.6566 24.3011 13.5101 24.4476C13.3636 24.5941 13.2812 24.7928 13.2812 25V32.0312H5.46875V26.5625C5.46875 26.3553 5.38644 26.1566 5.23993 26.0101C5.09341 25.8636 4.8947 25.7812 4.6875 25.7812H2.34375V24.2188Z" fill="#922E31"/>
<path d="M38.2813 27.3438C36.118 27.3438 34.0034 27.9852 32.2047 29.1871C30.406 30.3889 29.0042 32.0971 28.1763 34.0957C27.3485 36.0942 27.1319 38.2934 27.5539 40.4151C27.9759 42.5367 29.0176 44.4856 30.5473 46.0152C32.0769 47.5449 34.0258 48.5866 36.1475 49.0086C38.2691 49.4306 40.4683 49.214 42.4669 48.3862C44.4654 47.5583 46.1736 46.1565 47.3755 44.3578C48.5773 42.5591 49.2188 40.4445 49.2188 38.2812C49.2157 35.3814 48.0623 32.6012 46.0118 30.5507C43.9613 28.5002 41.1811 27.3469 38.2813 27.3438ZM38.2813 47.6562C36.4271 47.6562 34.6145 47.1064 33.0728 46.0763C31.5311 45.0461 30.3295 43.582 29.6199 41.8689C28.9103 40.1559 28.7247 38.2709 29.0864 36.4523C29.4481 34.6337 30.341 32.9632 31.6521 31.6521C32.9632 30.341 34.6337 29.4481 36.4523 29.0864C38.2709 28.7247 40.1559 28.9103 41.8689 29.6199C43.582 30.3295 45.0461 31.5311 46.0763 33.0728C47.1064 34.6145 47.6563 36.427 47.6563 38.2812C47.6536 40.7668 46.665 43.1498 44.9074 44.9074C43.1498 46.665 40.7668 47.6536 38.2813 47.6562Z" fill="#922E31"/>
<path d="M42.4165 32.26L35.9376 38.7389L34.1462 36.9475C33.9997 36.801 33.801 36.7188 33.5938 36.7188C33.3867 36.7188 33.188 36.801 33.0415 36.9475L30.6977 39.2912C30.5513 39.4377 30.469 39.6364 30.469 39.8436C30.469 40.0507 30.5513 40.2494 30.6977 40.3959L35.3852 45.0834C35.5317 45.2299 35.7304 45.3122 35.9376 45.3122C36.1447 45.3122 36.3434 45.2299 36.4899 45.0834L45.8649 35.7084C46.0114 35.5619 46.0937 35.3632 46.0937 35.1561C46.0937 34.9489 46.0114 34.7502 45.8649 34.6037L43.5212 32.26C43.3747 32.1135 43.176 32.0312 42.9688 32.0312C42.7617 32.0312 42.563 32.1135 42.4165 32.26ZM35.9376 43.4264L32.3548 39.8436L33.5938 38.6045L35.3852 40.3959C35.5317 40.5424 35.7304 40.6247 35.9376 40.6247C36.1447 40.6247 36.3434 40.5424 36.4899 40.3959L42.9688 33.917L44.2079 35.1561L35.9376 43.4264Z" fill="#922E31"/>
</g>
<defs>
<clipPath id="clip0_2112_46">
<rect width="50" height="50" fill="white"/>
</clipPath>
</defs>
</svg>
