<svg width="50" height="50" viewBox="0 0 50 50" fill="none" xmlns="http://www.w3.org/2000/svg">
<path d="M15.3948 14.873C15.3948 14.6917 15.4668 14.5179 15.595 14.3897C15.7232 14.2615 15.8971 14.1895 16.0784 14.1895H28.3719C28.5532 14.1895 28.727 14.2615 28.8552 14.3897C28.9834 14.5179 29.0555 14.6917 29.0555 14.873C29.0555 15.0543 28.9834 15.2282 28.8552 15.3564C28.727 15.4846 28.5532 15.5566 28.3719 15.5566H16.0784C15.8971 15.5566 15.7232 15.4846 15.595 15.3564C15.4668 15.2282 15.3948 15.0543 15.3948 14.873ZM16.0784 18.4635H28.3719C28.5532 18.4635 28.727 18.3915 28.8552 18.2633C28.9834 18.1351 29.0555 17.9612 29.0555 17.7799C29.0555 17.5986 28.9834 17.4247 28.8552 17.2965C28.727 17.1683 28.5532 17.0963 28.3719 17.0963H16.0784C15.8971 17.0963 15.7232 17.1683 15.595 17.2965C15.4668 17.4247 15.3948 17.5986 15.3948 17.7799C15.3948 17.9612 15.4668 18.1351 15.595 18.2633C15.7232 18.3915 15.8971 18.4635 16.0784 18.4635ZM13.1083 14.2676V18.6278C13.1083 18.8091 13.0363 18.983 12.9081 19.1112C12.7799 19.2394 12.606 19.3114 12.4247 19.3114H8.06445C7.88315 19.3114 7.70928 19.2394 7.58108 19.1112C7.45288 18.983 7.38086 18.8091 7.38086 18.6278V14.2676C7.38086 14.0863 7.45288 13.9124 7.58108 13.7842C7.70928 13.656 7.88315 13.584 8.06445 13.584H12.4247C12.606 13.584 12.7799 13.656 12.9081 13.7842C13.0363 13.9124 13.1083 14.0863 13.1083 14.2676ZM11.7411 14.9512H8.74805V17.9442H11.7411V14.9512ZM16.0784 24.8047H28.3719C28.5532 24.8047 28.727 24.7327 28.8552 24.6045C28.9834 24.4763 29.0555 24.3024 29.0555 24.1211C29.0555 23.9398 28.9834 23.7659 28.8552 23.6377C28.727 23.5095 28.5532 23.4375 28.3719 23.4375H16.0784C15.8971 23.4375 15.7232 23.5095 15.595 23.6377C15.4668 23.7659 15.3948 23.9398 15.3948 24.1211C15.3948 24.3024 15.4668 24.4763 15.595 24.6045C15.7232 24.7327 15.8971 24.8047 16.0784 24.8047ZM29.0555 27.0279C29.0555 26.8466 28.9834 26.6728 28.8552 26.5446C28.727 26.4164 28.5532 26.3443 28.3719 26.3443H16.0784C15.8971 26.3443 15.7232 26.4164 15.595 26.5446C15.4668 26.6728 15.3948 26.8466 15.3948 27.0279C15.3948 27.2092 15.4668 27.3831 15.595 27.5113C15.7232 27.6395 15.8971 27.7115 16.0784 27.7115H28.3719C28.4617 27.7115 28.5506 27.6938 28.6335 27.6595C28.7165 27.6251 28.7919 27.5747 28.8553 27.5112C28.9188 27.4477 28.9692 27.3723 29.0035 27.2893C29.0378 27.2064 29.0555 27.1174 29.0555 27.0276V27.0279ZM13.1083 23.5156V27.8759C13.1083 28.0572 13.0363 28.2311 12.9081 28.3593C12.7799 28.4875 12.606 28.5595 12.4247 28.5595H8.06445C7.88315 28.5595 7.70928 28.4875 7.58108 28.3593C7.45288 28.2311 7.38086 28.0572 7.38086 27.8759V23.5156C7.38086 23.3343 7.45288 23.1604 7.58108 23.0322C7.70928 22.9041 7.88315 22.832 8.06445 22.832H12.4247C12.606 22.832 12.7799 22.9041 12.9081 23.0322C13.0363 23.1604 13.1083 23.3343 13.1083 23.5156ZM11.7411 24.1992H8.74805V27.1923H11.7411V24.1992ZM23.164 32.6856H16.0784C15.8971 32.6856 15.7232 32.7576 15.595 32.8858C15.4668 33.014 15.3948 33.1878 15.3948 33.3691C15.3948 33.5504 15.4668 33.7243 15.595 33.8525C15.7232 33.9807 15.8971 34.0527 16.0784 34.0527H23.164C23.3453 34.0527 23.5191 33.9807 23.6473 33.8525C23.7755 33.7243 23.8476 33.5504 23.8476 33.3691C23.8476 33.1878 23.7755 33.014 23.6473 32.8858C23.5191 32.7576 23.3453 32.6856 23.164 32.6856ZM23.164 35.5923H16.0784C15.8971 35.5923 15.7232 35.6643 15.595 35.7925C15.4668 35.9207 15.3948 36.0946 15.3948 36.2759C15.3948 36.4572 15.4668 36.6311 15.595 36.7593C15.7232 36.8875 15.8971 36.9595 16.0784 36.9595H23.164C23.3453 36.9595 23.5191 36.8875 23.6473 36.7593C23.7755 36.6311 23.8476 36.4572 23.8476 36.2759C23.8476 36.0946 23.7755 35.9207 23.6473 35.7925C23.5191 35.6643 23.3453 35.5923 23.164 35.5923ZM13.1083 32.7637V37.1239C13.1083 37.3052 13.0363 37.4791 12.9081 37.6073C12.7799 37.7355 12.606 37.8075 12.4247 37.8075H8.06445C7.88315 37.8075 7.70928 37.7355 7.58108 37.6073C7.45288 37.4791 7.38086 37.3052 7.38086 37.1239V32.7637C7.38086 32.5824 7.45288 32.4085 7.58108 32.2803C7.70928 32.1521 7.88315 32.0801 8.06445 32.0801H12.4247C12.606 32.0801 12.7799 32.1521 12.9081 32.2803C13.0363 32.4085 13.1083 32.5824 13.1083 32.7637ZM11.7411 33.4473H8.74805V36.4403H11.7411V33.4473ZM47.9212 36.701V39.2932C47.9228 39.5795 47.8448 39.8607 47.696 40.1053C47.5472 40.3499 47.3334 40.5484 47.0784 40.6787C46.6534 40.8935 46.2019 41.0515 45.7357 41.1488C45.7019 41.1577 45.671 41.1749 45.6457 41.199C45.6204 41.2231 45.6016 41.2532 45.5911 41.2865C45.4737 41.6198 45.3386 41.9465 45.1862 42.2652C45.1717 42.2946 45.1651 42.3271 45.167 42.3598C45.1688 42.3925 45.1791 42.4241 45.1969 42.4516C45.4656 42.8615 45.6751 43.3074 45.819 43.776C45.9006 44.0456 45.9072 44.3323 45.8383 44.6054C45.7694 44.8785 45.6274 45.1277 45.4277 45.3264L43.5941 47.16C43.3928 47.3635 43.139 47.5071 42.8608 47.5748C42.5827 47.6425 42.2912 47.6317 42.0188 47.5435C41.5662 47.3947 41.135 47.1871 40.7363 46.9261C40.7061 46.9084 40.6719 46.8987 40.6369 46.8979C40.6019 46.8971 40.5672 46.9051 40.5362 46.9214C40.2178 47.0743 39.8913 47.2099 39.5582 47.3276C39.5273 47.3382 39.4997 47.3566 39.478 47.381C39.4564 47.4054 39.4414 47.435 39.4346 47.4669C39.3347 47.9466 39.1677 48.4097 38.9383 48.8427C38.8053 49.0912 38.6072 49.2989 38.3652 49.4434C38.1233 49.5879 37.8465 49.6638 37.5646 49.663H34.9725C34.6861 49.6646 34.405 49.5866 34.1604 49.4378C33.9158 49.289 33.7173 49.0752 33.587 48.8202C33.3722 48.3952 33.2141 47.9438 33.1168 47.4776C33.108 47.4438 33.0908 47.4128 33.0667 47.3875C33.0426 47.3622 33.0125 47.3434 32.9792 47.3329C32.6459 47.2156 32.3192 47.0804 32.0005 46.928C31.9711 46.9135 31.9385 46.9069 31.9059 46.9087C31.8732 46.9106 31.8416 46.9209 31.8141 46.9387C31.4041 47.2074 30.9583 47.4168 30.4897 47.5608C30.2201 47.6424 29.9334 47.649 29.6603 47.5801C29.3872 47.5111 29.138 47.3692 28.9394 47.1694L28.7981 47.0283H4.59355C3.92678 47.0276 3.28753 46.7624 2.81605 46.2909C2.34457 45.8194 2.07936 45.1802 2.07861 44.5134V6.87822C2.07934 6.21143 2.34453 5.57216 2.81602 5.10066C3.2875 4.62915 3.92676 4.36393 4.59355 4.36318H14.2029C14.2732 4.04201 14.4511 3.75446 14.707 3.54814C14.963 3.34182 15.2818 3.22909 15.6105 3.22861H17.0656V2.29043C17.0656 1.77258 17.2713 1.27595 17.6375 0.909776C18.0037 0.543604 18.5003 0.337891 19.0182 0.337891C19.536 0.337891 20.0326 0.543604 20.3988 0.909776C20.765 1.27595 20.9707 1.77258 20.9707 2.29043V3.22861H22.4258C22.7545 3.22911 23.0733 3.34185 23.3292 3.54817C23.5852 3.75449 23.763 4.04203 23.8333 4.36318H33.4427C34.1095 4.36396 34.7487 4.62919 35.2202 5.10068C35.6917 5.57218 35.9569 6.21144 35.9576 6.87822V26.344H37.5517C37.838 26.3425 38.1192 26.4204 38.3638 26.5693C38.6084 26.7181 38.8069 26.9319 38.9372 27.1869C39.152 27.6119 39.31 28.0633 39.4074 28.5294C39.4162 28.5632 39.4334 28.5942 39.4575 28.6195C39.4816 28.6449 39.5117 28.6636 39.545 28.6741C39.8783 28.7915 40.205 28.9267 40.5237 29.0791C40.5531 29.0935 40.5857 29.1001 40.6183 29.0983C40.651 29.0964 40.6826 29.0861 40.7102 29.0685C41.12 28.7996 41.5659 28.5902 42.0345 28.4463C42.3041 28.3647 42.5908 28.3581 42.8639 28.427C43.137 28.4959 43.3862 28.6378 43.5849 28.8375L45.4185 30.6712C45.622 30.8725 45.7656 31.1264 45.8333 31.4045C45.901 31.6827 45.8902 31.9741 45.8019 32.2465C45.6532 32.6992 45.4456 33.1303 45.1846 33.5289C45.1669 33.5591 45.1572 33.5934 45.1564 33.6284C45.1556 33.6633 45.1637 33.698 45.1799 33.729C45.3327 34.0475 45.4684 34.374 45.5862 34.707C45.597 34.7378 45.6154 34.7653 45.6397 34.7869C45.6641 34.8085 45.6935 34.8236 45.7253 34.8307C46.205 34.9305 46.6682 35.0975 47.1012 35.327C47.3496 35.4599 47.5572 35.6581 47.7017 35.9C47.8462 36.142 47.922 36.4188 47.9212 36.7006V36.701ZM33.4429 5.73037H23.8671V6.68545H32.9519C33.1332 6.68545 33.307 6.75747 33.4352 6.88567C33.5634 7.01387 33.6354 7.18774 33.6354 7.36904V27.0784C33.8505 26.7317 34.1937 26.4838 34.5905 26.3887V6.87822C34.5902 6.57393 34.4692 6.28219 34.254 6.06701C34.0389 5.85182 33.7472 5.73076 33.4429 5.73037ZM27.0967 30.6803L28.9303 28.8466C29.1316 28.6431 29.3855 28.4995 29.6636 28.4318C29.9418 28.3641 30.2332 28.3749 30.5056 28.4631C30.9582 28.6119 31.3894 28.8195 31.7881 29.0806C31.8183 29.0982 31.8525 29.1078 31.8875 29.1087C31.9225 29.1095 31.9571 29.1014 31.9881 29.0853C32.0806 29.0408 32.1742 28.9981 32.2684 28.9565V8.05264H23.8048C23.7147 8.34821 23.5321 8.60707 23.284 8.79116C23.0358 8.97525 22.7351 9.07484 22.4261 9.07529H15.6104C15.3013 9.07487 15.0006 8.97529 14.7524 8.7912C14.5043 8.60711 14.3217 8.34823 14.2316 8.05264H5.76807V43.338H26.8808C27.0085 43.0383 27.1621 42.7503 27.3397 42.4772C27.3574 42.447 27.3671 42.4128 27.3679 42.3778C27.3688 42.3428 27.3607 42.3082 27.3444 42.2771C27.1916 41.9586 27.056 41.6322 26.9382 41.2991C26.9277 41.2682 26.9093 41.2406 26.8849 41.2189C26.8605 41.1973 26.8309 41.1823 26.799 41.1755C26.3193 41.0757 25.8561 40.9086 25.4231 40.6792C25.1747 40.5462 24.9671 40.3481 24.8227 40.1061C24.6783 39.8641 24.6025 39.5874 24.6033 39.3056V36.7134C24.6018 36.4271 24.6797 36.1459 24.8285 35.9013C24.9773 35.6566 25.1911 35.4581 25.4461 35.3278C25.8711 35.1131 26.3225 34.955 26.7887 34.8576C26.8225 34.8489 26.8535 34.8316 26.8789 34.8076C26.9042 34.7835 26.923 34.7534 26.9334 34.72C27.0508 34.3868 27.186 34.0601 27.3384 33.7413C27.3529 33.712 27.3595 33.6794 27.3576 33.6467C27.3558 33.6141 27.3455 33.5825 27.3277 33.555C27.059 33.1451 26.8495 32.6992 26.7056 32.2307C26.6239 31.9611 26.6172 31.6743 26.6861 31.4012C26.755 31.1281 26.8969 30.8789 27.0967 30.6803ZM15.5363 7.63408C15.5364 7.65371 15.5442 7.67252 15.558 7.6864C15.5719 7.70027 15.5907 7.70808 15.6104 7.70811H22.4261C22.4457 7.70808 22.4645 7.70027 22.4784 7.68639C22.4922 7.67251 22.5 7.6537 22.5 7.63408V4.66982C22.5 4.65021 22.4922 4.6314 22.4784 4.61752C22.4645 4.60364 22.4457 4.59583 22.4261 4.5958H20.2874C20.1061 4.5958 19.9322 4.52378 19.804 4.39558C19.6758 4.26738 19.6038 4.09351 19.6038 3.91221V2.29043C19.6038 2.13518 19.5421 1.9863 19.4324 1.87652C19.3226 1.76675 19.1737 1.70508 19.0185 1.70508C18.8632 1.70508 18.7143 1.76675 18.6045 1.87652C18.4948 1.9863 18.4331 2.13518 18.4331 2.29043V3.91221C18.4331 4.09351 18.3611 4.26738 18.2329 4.39558C18.1047 4.52378 17.9308 4.5958 17.7495 4.5958H15.6108C15.5912 4.59583 15.5724 4.60363 15.5585 4.61751C15.5446 4.63139 15.5368 4.6502 15.5368 4.66982L15.5363 7.63408ZM27.4309 45.6603L27.1056 45.335C26.9287 45.1588 26.7966 44.9428 26.7202 44.7052H5.08447C4.90317 44.7052 4.7293 44.6332 4.6011 44.505C4.4729 44.3768 4.40088 44.2029 4.40088 44.0216V7.36904C4.40088 7.18774 4.4729 7.01387 4.6011 6.88567C4.7293 6.75747 4.90317 6.68545 5.08447 6.68545H14.1691V5.73037H4.59355C4.28925 5.73073 3.99751 5.85179 3.78234 6.06697C3.56717 6.28216 3.44614 6.57391 3.4458 6.87822V44.5125C3.44614 44.8168 3.56717 45.1085 3.78234 45.3237C3.99751 45.5389 4.28925 45.6599 4.59355 45.6603H27.4309ZM46.5539 36.7006C46.5542 36.6665 46.5454 36.633 46.5284 36.6035C46.5114 36.5741 46.4868 36.5497 46.4571 36.5329C46.1377 36.3642 45.7961 36.2414 45.4424 36.1682C45.1816 36.1119 44.9396 35.9899 44.7392 35.8139C44.5388 35.6379 44.3866 35.4136 44.2972 35.1623C44.1958 34.8756 44.0791 34.5946 43.9475 34.3204C43.8304 34.0779 43.7773 33.8094 43.7932 33.5406C43.809 33.2717 43.8933 33.0114 44.038 32.7843C44.2337 32.4861 44.3895 32.1635 44.5014 31.8248C44.511 31.792 44.5114 31.7573 44.5027 31.7243C44.4939 31.6913 44.4763 31.6613 44.4518 31.6376L42.6184 29.8047C42.5947 29.7803 42.5648 29.7628 42.5319 29.754C42.4991 29.7452 42.4644 29.7455 42.4317 29.7549C42.0865 29.8614 41.758 30.0162 41.4561 30.2147C41.2317 30.3593 40.9741 30.4442 40.7077 30.4612C40.4413 30.4783 40.175 30.4271 39.934 30.3124C39.6595 30.1812 39.3782 30.0649 39.0913 29.9638C38.8374 29.8748 38.6103 29.7226 38.4317 29.5214C38.253 29.3203 38.1286 29.0768 38.0703 28.8142C37.9979 28.465 37.8801 28.1268 37.7197 27.8083C37.7033 27.7783 37.679 27.7533 37.6494 27.7361C37.6198 27.7188 37.5861 27.7101 37.5519 27.7106H34.9597C34.9256 27.7103 34.8921 27.7192 34.8626 27.7362C34.8331 27.7532 34.8087 27.7779 34.792 27.8075C34.6232 28.1269 34.5005 28.4685 34.4273 28.8223C34.371 29.083 34.249 29.3249 34.073 29.5253C33.897 29.7257 33.6727 29.8779 33.4215 29.9674C33.1347 30.0687 32.8535 30.1855 32.5793 30.3171C32.3368 30.4341 32.0683 30.4872 31.7995 30.4714C31.5307 30.4556 31.2704 30.3713 31.0433 30.2267C30.7451 30.0308 30.4225 29.875 30.0837 29.7632C30.0509 29.7536 30.0162 29.7532 29.9832 29.7619C29.9502 29.7707 29.9203 29.7883 29.8966 29.8128L28.0634 31.647C28.0389 31.6706 28.0214 31.7005 28.0126 31.7334C28.0038 31.7663 28.0042 31.8009 28.0136 31.8336C28.1201 32.1788 28.275 32.5073 28.4734 32.8092C28.618 33.0336 28.7028 33.2912 28.7199 33.5575C28.737 33.8239 28.6858 34.0902 28.5711 34.3312C28.4399 34.6057 28.3236 34.8869 28.2226 35.1738C28.1337 35.4278 27.9814 35.6549 27.7802 35.8336C27.579 36.0123 27.3356 36.1367 27.0728 36.1949C26.7237 36.2673 26.3855 36.3851 26.067 36.5455C26.0369 36.5619 26.0119 36.5862 25.9947 36.6158C25.9775 36.6454 25.9687 36.6791 25.9693 36.7134V39.3056C25.9691 39.3396 25.9779 39.3731 25.9949 39.4026C26.012 39.4321 26.0366 39.4566 26.0662 39.4733C26.3856 39.6421 26.7272 39.7648 27.081 39.8379C27.3416 39.8943 27.5836 40.0162 27.784 40.1922C27.9844 40.3683 28.1366 40.5925 28.2261 40.8438C28.3275 41.1305 28.4442 41.4116 28.5758 41.6858C28.6928 41.9284 28.7459 42.1968 28.7301 42.4656C28.7143 42.7344 28.63 42.9947 28.4853 43.2219C28.2896 43.5201 28.1337 43.8427 28.0219 44.1814C28.0123 44.2142 28.0119 44.2489 28.0206 44.2819C28.0294 44.3149 28.047 44.3448 28.0715 44.3686L29.9051 46.2021C29.9287 46.2265 29.9586 46.2441 29.9915 46.2529C30.0243 46.2617 30.059 46.2614 30.0917 46.252C30.437 46.1454 30.7654 45.9906 31.0674 45.7921C31.2918 45.6476 31.5494 45.5627 31.8157 45.5456C32.0821 45.5285 32.3484 45.5798 32.5895 45.6944C32.8638 45.8256 33.1451 45.942 33.4319 46.0431C33.6859 46.1319 33.913 46.2842 34.0917 46.4854C34.2704 46.6866 34.3948 46.9301 34.453 47.1928C34.5254 47.5419 34.6433 47.8801 34.8036 48.1986C34.82 48.2287 34.8443 48.2537 34.8739 48.2709C34.9035 48.2881 34.9373 48.2969 34.9715 48.2963H37.5637C37.5977 48.2966 37.6312 48.2878 37.6607 48.2708C37.6902 48.2537 37.7146 48.2291 37.7313 48.1994C37.9001 47.88 38.0229 47.5384 38.0961 47.1847C38.1524 46.924 38.2744 46.6819 38.4504 46.4815C38.6264 46.2812 38.8507 46.129 39.1019 46.0396C39.3886 45.9382 39.6696 45.8214 39.9437 45.6898C40.1863 45.5728 40.4548 45.5197 40.7236 45.5355C40.9925 45.5514 41.2528 45.6356 41.48 45.7803C41.7781 45.9761 42.1007 46.1319 42.4394 46.2438C42.4722 46.2534 42.5069 46.2538 42.5399 46.2451C42.5729 46.2364 42.6029 46.2188 42.6266 46.1942L44.4602 44.3605C44.4846 44.3369 44.5022 44.307 44.511 44.2742C44.5198 44.2413 44.5194 44.2066 44.5101 44.1739C44.4034 43.8287 44.2486 43.5002 44.0502 43.1982C43.9056 42.9739 43.8208 42.7163 43.8037 42.4499C43.7866 42.1835 43.8378 41.9172 43.9525 41.6762C44.0837 41.4018 44.2 41.1205 44.3011 40.8337C44.3899 40.5797 44.5422 40.3526 44.7434 40.1739C44.9445 39.9953 45.188 39.8709 45.4507 39.8126C45.7998 39.7402 46.138 39.6223 46.4565 39.462C46.4866 39.4456 46.5116 39.4213 46.5288 39.3917C46.546 39.3621 46.5548 39.3284 46.5542 39.2941L46.5539 36.7006ZM42.9358 38.003C42.9358 39.323 42.5444 40.6133 41.8111 41.7108C41.0778 42.8082 40.0355 43.6636 38.816 44.1688C37.5966 44.6739 36.2547 44.806 34.9601 44.5485C33.6656 44.291 32.4764 43.6554 31.5431 42.7221C30.6097 41.7887 29.9741 40.5996 29.7166 39.305C29.4591 38.0104 29.5913 36.6686 30.0964 35.4491C30.6015 34.2296 31.4569 33.1873 32.5544 32.454C33.6519 31.7207 34.9422 31.3293 36.2621 31.3293C38.0315 31.3313 39.7278 32.035 40.979 33.2862C42.2301 34.5373 42.9339 36.2336 42.9359 38.003H42.9358ZM33.6354 42.611C33.9389 42.7847 34.2588 42.9279 34.5905 43.0383V32.9678C34.2588 33.0783 33.9389 33.2214 33.6354 33.3951V42.611ZM32.2683 41.4913V34.5147C31.4221 35.4798 30.9556 36.7195 30.9556 38.003C30.9556 39.2865 31.4221 40.5262 32.2683 41.4913ZM41.5686 38.003C41.5671 36.5961 41.0075 35.2473 40.0127 34.2525C39.0178 33.2576 37.669 32.6981 36.2621 32.6965C36.1599 32.6965 36.0585 32.7001 35.9577 32.7062V43.3008C36.0585 43.3064 36.1599 43.3105 36.2621 43.3105C37.6692 43.309 39.0182 42.7493 40.0131 41.7542C41.0079 40.7592 41.5674 39.4101 41.5687 38.003H41.5686Z" fill="#922E31"/>
</svg>
