<?xml version="1.0" encoding="UTF-8"?>
<svg version="1.1" xmlns="http://www.w3.org/2000/svg" width="512" height="512">
<path d="M0 0 C1.15741447 -0.0146228 1.15741447 -0.0146228 2.33821106 -0.02954102 C19.53101638 -0.20195722 36.02987339 0.04001806 52.8125 4.23828125 C53.55580566 4.41488281 54.29911133 4.59148438 55.06494141 4.7734375 C89.8085179 13.20369196 119.66126668 33.3436468 143.8125 59.23828125 C144.40367363 60.27438538 144.40367363 60.27438538 145.00679016 61.3314209 C146.72922404 63.53567608 146.72922404 63.53567608 149.81486511 63.73034668 C151.04538101 63.72716431 152.27589691 63.72398193 153.54370117 63.72070312 C154.22379242 63.72461563 154.90388367 63.72852814 155.60458374 63.7325592 C157.0810726 63.73853538 158.55762032 63.73536191 160.0340786 63.72413635 C162.37666881 63.70687504 164.71802452 63.71438249 167.06062317 63.72839355 C172.88219684 63.7580521 178.70353605 63.74489458 184.52514648 63.73321533 C189.43876082 63.72498462 194.35183688 63.7330736 199.26537514 63.76234436 C201.56326588 63.76940164 203.86019025 63.75280284 206.15800476 63.73522949 C214.9601827 63.73763983 221.21999298 64.21383694 228.0546875 70.203125 C228.86292969 71.17958984 228.86292969 71.17958984 229.6875 72.17578125 C230.24179687 72.82417969 230.79609375 73.47257812 231.3671875 74.140625 C234.07640083 78.07264542 235.06274001 81.5883452 235.05859566 86.33570576 C235.06257775 87.34539553 235.06655985 88.3550853 235.07066262 89.39537174 C235.06483693 90.49750969 235.05901125 91.59964764 235.05300903 92.73518372 C235.05557231 94.49956119 235.05557231 94.49956119 235.05818737 96.29958266 C235.06091162 99.56059687 235.05466266 102.82145201 235.04463124 106.08244741 C235.0359934 109.6004564 235.03891714 113.118458 235.04043579 116.63647461 C235.04148443 122.73038807 235.03521002 128.8242587 235.02396011 134.91816139 C235.00770524 143.72891264 235.00249712 152.53964318 234.99998413 161.3504078 C234.99560701 175.64531942 234.98229744 189.9402082 234.96337891 204.23510742 C234.94502055 218.12117397 234.93086383 232.00723431 234.92236328 245.89331055 C234.92183783 246.74926466 234.92131239 247.60521877 234.92077102 248.48711089 C234.91816094 252.78118613 234.91563353 257.07526141 234.91314721 261.36933672 C234.89241418 296.99233451 234.85718817 332.61530577 234.8125 368.23828125 C235.39741211 368.21733398 235.98232422 368.19638672 236.58496094 368.17480469 C239.24396465 368.0914801 241.90269355 368.03957228 244.5625 367.98828125 C245.48289062 367.95476562 246.40328125 367.92125 247.3515625 367.88671875 C254.1882725 367.787636 254.1882725 367.787636 257.42137909 370.12169552 C259.00185571 372.52638532 259.31806984 373.79087979 259.33007812 376.64868164 C259.34268677 377.51380875 259.35529541 378.37893585 259.36828613 379.27027893 C259.35614075 380.66402992 259.35614075 380.66402992 259.34375 382.0859375 C259.3475769 383.05301132 259.35140381 384.02008514 259.35534668 385.01646423 C259.35806796 387.0649418 259.35069167 389.11345399 259.33398438 391.16186523 C259.31274064 394.26562253 259.33369413 397.36702172 259.359375 400.47070312 C259.38068383 414.97491417 258.24139462 426.31375599 247.8125 437.23828125 C236.69697102 447.84951402 224.73743256 448.82859401 210.08740234 448.74621582 C208.29557985 448.75083003 206.50376115 448.75718644 204.7119503 448.7651248 C199.80965293 448.78176972 194.90766841 448.77359377 190.00537014 448.76117992 C184.71012222 448.75211194 179.41492726 448.76610784 174.11968994 448.77709961 C163.75480417 448.79487072 153.39003438 448.79105109 143.0251441 448.77944905 C134.60014743 448.77040948 126.17518323 448.769193 117.75018311 448.77354431 C116.55034267 448.77415724 115.35050223 448.77477018 114.11430299 448.77540168 C111.6767249 448.7766806 109.23914682 448.77797746 106.80156875 448.77929205 C83.95321809 448.79069373 61.10493168 448.77759058 38.25659156 448.75609058 C18.65865908 448.73821999 -0.93917861 448.74132422 -20.53710938 448.75976562 C-43.30462135 448.78117959 -66.07207706 448.78959513 -88.8395977 448.77731657 C-91.26812616 448.7760424 -93.69665463 448.77478491 -96.12518311 448.77354431 C-97.91742984 448.77261866 -97.91742984 448.77261866 -99.74588358 448.77167431 C-108.15915506 448.76822299 -116.5723908 448.77404505 -124.98565674 448.78346252 C-135.24092311 448.7946897 -145.49606704 448.79162724 -155.75131941 448.77033955 C-160.98206539 448.75983892 -166.21260735 448.75569061 -171.44335175 448.76893616 C-176.23499281 448.78088613 -181.02624138 448.77425448 -185.81784701 448.75302595 C-187.5478466 448.74857094 -189.27787959 448.75080131 -191.00785756 448.7605291 C-204.80244861 448.83212535 -215.84340325 447.11308061 -226.1875 437.23828125 C-237.42513001 425.46658565 -237.83719136 412.89665344 -237.70898438 397.40209961 C-237.68738075 394.28356665 -237.70894009 391.16729457 -237.734375 388.04882812 C-237.73173454 386.06119285 -237.72661542 384.07355897 -237.71875 382.0859375 C-237.72684692 381.15677017 -237.73494385 380.22760284 -237.74328613 379.27027893 C-237.72437317 377.97258827 -237.72437317 377.97258827 -237.70507812 376.64868164 C-237.70030457 375.51264244 -237.70030457 375.51264244 -237.69543457 374.35365295 C-236.92425071 371.14193905 -235.88677898 370.18695743 -233.1875 368.23828125 C-229.75998669 367.73761036 -226.39196743 367.86248832 -222.9375 367.98828125 C-222.00164062 368.00632812 -221.06578125 368.024375 -220.1015625 368.04296875 C-217.79582985 368.09002452 -215.49219055 368.15574412 -213.1875 368.23828125 C-213.18901888 367.63403572 -213.19053776 367.02979019 -213.19210267 366.40723419 C-213.28162246 330.59167668 -213.35025001 294.77613843 -213.39176132 258.96049231 C-213.39676412 254.65969651 -213.40194141 250.35890093 -213.40722656 246.05810547 C-213.4082758 245.20189751 -213.40932505 244.34568956 -213.41040608 243.4635359 C-213.42780949 229.60143919 -213.45934683 215.73940886 -213.49611118 201.87735152 C-213.5335224 187.65272094 -213.55573623 173.42812511 -213.56385398 159.20344734 C-213.56934138 150.42662359 -213.58667043 141.64998746 -213.61916587 132.87322146 C-213.64031598 126.85398087 -213.64669893 120.83483723 -213.64150551 114.81556219 C-213.63894448 111.34313551 -213.64285958 107.87103662 -213.6643219 104.39866829 C-213.68421049 100.63083274 -213.67944208 96.86380126 -213.66851807 93.09594727 C-213.68016943 92.00254784 -213.6918208 90.90914841 -213.70382524 89.78261566 C-213.64419172 82.17763359 -212.37096622 76.87110353 -207.22265625 70.99609375 C-206.57167969 70.45726563 -205.92070312 69.9184375 -205.25 69.36328125 C-204.60160156 68.80898437 -203.95320313 68.2546875 -203.28515625 67.68359375 C-198.6690159 64.50301288 -194.83184305 64.00547197 -189.27685547 64.10986328 C-187.87726941 64.12898511 -186.47768237 64.14803491 -185.07809448 64.16702271 C-184.34155514 64.18067997 -183.60501579 64.19433723 -182.84615707 64.20840836 C-178.91331225 64.27308773 -174.98016527 64.27748456 -171.046875 64.29296875 C-166.05599943 64.31647972 -161.06706411 64.35721818 -156.07714844 64.4609375 C-152.0310378 64.54345821 -147.98825524 64.56634721 -143.94137955 64.55111313 C-142.40956715 64.5560434 -140.8776546 64.58221166 -139.34661484 64.63110733 C-129.9366158 64.96681226 -129.9366158 64.96681226 -121.8682251 60.63397217 C-119.01477413 57.70918912 -116.61753656 54.51822078 -114.1875 51.23828125 C-86.77806068 20.73759993 -40.99693665 0.42996683 0 0 Z M-68.1875 76.23828125 C-69.51837231 77.24155422 -70.85088562 78.242671 -72.1875 79.23828125 C-70.77905282 82.4535243 -69.08405214 84.56011993 -66.5625 86.98828125 C-65.93085938 87.601875 -65.29921875 88.21546875 -64.6484375 88.84765625 C-64.16632813 89.3065625 -63.68421875 89.76546875 -63.1875 90.23828125 C-64.66471422 93.69029764 -66.62544001 95.88790061 -69.3125 98.48828125 C-70.03695312 99.1946875 -70.76140625 99.90109375 -71.5078125 100.62890625 C-72.06210938 101.16 -72.61640625 101.69109375 -73.1875 102.23828125 C-76.40274305 100.82983407 -78.50933868 99.13483339 -80.9375 96.61328125 C-81.55109375 95.98164062 -82.1646875 95.35 -82.796875 94.69921875 C-83.48523438 93.97605469 -83.48523438 93.97605469 -84.1875 93.23828125 C-88.07887821 94.53540732 -89.47833716 96.88755548 -91.75 100.11328125 C-92.18473633 100.73041992 -92.61947266 101.34755859 -93.06738281 101.98339844 C-106.3744036 121.39385507 -116.1875 144.39523911 -116.1875 168.23828125 C-111.2375 168.23828125 -106.2875 168.23828125 -101.1875 168.23828125 C-101.1875 173.51828125 -101.1875 178.79828125 -101.1875 184.23828125 C-106.1375 184.23828125 -111.0875 184.23828125 -116.1875 184.23828125 C-114.97954635 210.51127305 -105.26638168 234.52468866 -89.1875 255.23828125 C-88.18569179 256.57025651 -87.18504281 257.90310856 -86.1875 259.23828125 C-82.97225695 257.82983407 -80.86566132 256.13483339 -78.4375 253.61328125 C-77.82390625 252.98164063 -77.2103125 252.35 -76.578125 251.69921875 C-75.88976562 250.97605469 -75.88976562 250.97605469 -75.1875 250.23828125 C-71.73548361 251.71549547 -69.53788064 253.67622126 -66.9375 256.36328125 C-66.23109375 257.08773437 -65.5246875 257.8121875 -64.796875 258.55859375 C-64.26578125 259.11289062 -63.7346875 259.6671875 -63.1875 260.23828125 C-64.59594718 263.4535243 -66.29094786 265.56011993 -68.8125 267.98828125 C-69.75996094 268.90867187 -69.75996094 268.90867187 -70.7265625 269.84765625 C-71.20867187 270.3065625 -71.69078125 270.76546875 -72.1875 271.23828125 C-70.89037393 275.12965946 -68.53822577 276.52911841 -65.3125 278.80078125 C-64.69536133 279.23551758 -64.07822266 279.67025391 -63.44238281 280.11816406 C-44.03192618 293.42518485 -21.03054214 303.23828125 2.8125 303.23828125 C2.8125 298.28828125 2.8125 293.33828125 2.8125 288.23828125 C8.0925 288.23828125 13.3725 288.23828125 18.8125 288.23828125 C18.8125 293.18828125 18.8125 298.13828125 18.8125 303.23828125 C45.0854918 302.0303276 69.09890741 292.31716293 89.8125 276.23828125 C91.14447526 275.23647304 92.47732731 274.23582406 93.8125 273.23828125 C92.40405282 270.0230382 90.70905214 267.91644257 88.1875 265.48828125 C87.55585938 264.8746875 86.92421875 264.26109375 86.2734375 263.62890625 C85.79132813 263.17 85.30921875 262.71109375 84.8125 262.23828125 C86.28971422 258.78626486 88.25044001 256.58866189 90.9375 253.98828125 C91.66195312 253.281875 92.38640625 252.57546875 93.1328125 251.84765625 C93.96425781 251.05101562 93.96425781 251.05101562 94.8125 250.23828125 C98.02774305 251.64672843 100.13433868 253.34172911 102.5625 255.86328125 C103.17609375 256.49492187 103.7896875 257.1265625 104.421875 257.77734375 C104.88078125 258.25945312 105.3396875 258.7415625 105.8125 259.23828125 C109.70387821 257.94115518 111.10333716 255.58900702 113.375 252.36328125 C113.80973633 251.74614258 114.24447266 251.12900391 114.69238281 250.49316406 C127.9994036 231.08270743 137.8125 208.08132339 137.8125 184.23828125 C132.8625 184.23828125 127.9125 184.23828125 122.8125 184.23828125 C122.8125 178.95828125 122.8125 173.67828125 122.8125 168.23828125 C127.7625 168.23828125 132.7125 168.23828125 137.8125 168.23828125 C136.60454635 141.96528945 126.89138168 117.95187384 110.8125 97.23828125 C109.81069179 95.90630599 108.81004281 94.57345394 107.8125 93.23828125 C104.59725695 94.64672843 102.49066132 96.34172911 100.0625 98.86328125 C99.14210938 99.81074219 99.14210938 99.81074219 98.203125 100.77734375 C97.74421875 101.25945312 97.2853125 101.7415625 96.8125 102.23828125 C93.36048361 100.76106703 91.16288064 98.80034124 88.5625 96.11328125 C87.85609375 95.38882813 87.1496875 94.664375 86.421875 93.91796875 C85.62523437 93.08652344 85.62523437 93.08652344 84.8125 92.23828125 C86.22094718 89.0230382 87.91594786 86.91644257 90.4375 84.48828125 C91.06914062 83.8746875 91.70078125 83.26109375 92.3515625 82.62890625 C92.83367187 82.17 93.31578125 81.71109375 93.8125 81.23828125 C92.51537393 77.34690304 90.16322577 75.94744409 86.9375 73.67578125 C86.32036133 73.24104492 85.70322266 72.80630859 85.06738281 72.35839844 C65.65692618 59.05137765 42.65554214 49.23828125 18.8125 49.23828125 C18.8125 54.18828125 18.8125 59.13828125 18.8125 64.23828125 C13.5325 64.23828125 8.2525 64.23828125 2.8125 64.23828125 C2.8125 59.28828125 2.8125 54.33828125 2.8125 49.23828125 C-22.74194166 49.23828125 -48.42613549 60.53796779 -68.1875 76.23828125 Z M-195.1875 83.23828125 C-196.87462894 86.66310226 -197.43699269 89.43019577 -197.43359566 93.22638416 C-197.4375774 94.2119977 -197.44155914 95.19761124 -197.44566154 96.21309185 C-197.43983622 97.28768563 -197.43401089 98.36227942 -197.42800903 99.46943665 C-197.42972107 100.61433563 -197.43143311 101.75923462 -197.43319702 102.93882751 C-197.4359311 106.11871188 -197.42965966 109.29843343 -197.41964546 112.47829856 C-197.41091246 115.95926474 -197.41383466 119.4402247 -197.4152813 122.92119884 C-197.41634468 129.67846508 -197.40710939 136.43567816 -197.39427864 143.19293074 C-197.37988161 151.00895615 -197.3782893 158.82494961 -197.37670898 166.64099121 C-197.36620726 187.27759632 -197.33828504 207.91418958 -197.3125 228.55078125 C-197.27125 274.64765625 -197.23 320.74453125 -197.1875 368.23828125 C-59.9075 368.23828125 77.3725 368.23828125 218.8125 368.23828125 C218.874375 322.16203125 218.93625 276.08578125 219 228.61328125 C219.02731201 214.04993652 219.05462402 199.4865918 219.08276367 184.48193359 C219.09279528 171.45845138 219.09279528 171.45845138 219.09883118 158.43496704 C219.10163276 152.62186051 219.11265403 146.80884013 219.12922668 140.99575806 C219.14830547 134.29372612 219.15701188 127.59177704 219.15283485 120.88971774 C219.15102539 117.46036031 219.15392013 114.03118813 219.17014539 110.60186458 C219.18500913 106.9309878 219.18149134 103.26057807 219.17326355 99.58969116 C219.18200154 98.51801004 219.19073954 97.44632893 219.19974232 96.34217262 C219.16693293 90.91696177 218.98216951 86.8732832 215.8125 82.23828125 C212.37497885 80.25083863 209.39403203 79.99214241 205.47143555 80.01123047 C204.4307341 80.01138153 203.39003265 80.01153259 202.3177948 80.01168823 C201.2061647 80.0220108 200.09453461 80.03233337 198.94921875 80.04296875 C197.22853935 80.04721359 197.22853935 80.04721359 195.47309875 80.05154419 C191.81529232 80.06272428 188.15773222 80.0878253 184.5 80.11328125 C182.01758167 80.12331384 179.53515949 80.1324392 177.05273438 80.140625 C170.97257244 80.16265654 164.89255382 80.19611277 158.8125 80.23828125 C159.34214355 81.14739258 159.87178711 82.05650391 160.41748047 82.99316406 C164.20868744 89.53751879 167.92709008 96.03900166 170.9375 102.98828125 C171.26459961 103.73867676 171.59169922 104.48907227 171.92871094 105.26220703 C180.02228224 124.20906004 185.89149823 144.8419229 186.015625 165.56640625 C186.02268463 166.34877151 186.02974426 167.13113678 186.03701782 167.93721008 C186.26410905 200.49696974 186.26410905 200.49696974 182.8125 214.23828125 C182.61382324 215.05925293 182.41514648 215.88022461 182.21044922 216.72607422 C174.66018769 247.22686855 160.39369073 275.21956517 138.29931641 297.71630859 C136.818123 299.2325253 135.36690711 300.77330725 133.91796875 302.3203125 C104.54708356 333.23651406 60.05428798 350.94459134 17.8125 352.23828125 C16.77222656 352.27824219 15.73195313 352.31820313 14.66015625 352.359375 C-30.20379928 353.24932511 -75.67766195 337.25786305 -108.29296875 306.0703125 C-108.7626709 305.60963379 -109.23237305 305.14895508 -109.71630859 304.67431641 C-111.26847444 303.15924181 -112.84591536 301.67363311 -114.42578125 300.1875 C-142.91845106 273.00633102 -163.12701632 230.80662706 -164.36450195 191.20678711 C-164.39061494 189.78899307 -164.41080299 188.37108039 -164.42578125 186.953125 C-164.44040405 185.79783295 -164.44040405 185.79783295 -164.45532227 184.61920166 C-164.62781782 167.45718796 -164.37824619 150.99085852 -160.1875 134.23828125 C-160.01089844 133.49497559 -159.83429688 132.75166992 -159.65234375 131.98583984 C-155.3697091 114.33583353 -147.5879731 97.70589643 -138.1875 82.23828125 C-137.8575 81.57828125 -137.5275 80.91828125 -137.1875 80.23828125 C-144.48316754 80.162118 -151.77873224 80.10963365 -159.07470703 80.07348633 C-161.5558658 80.05841463 -164.03699799 80.03795379 -166.51806641 80.01196289 C-170.08763189 79.97550958 -173.65684461 79.95853833 -177.2265625 79.9453125 C-178.33303131 79.92982864 -179.43950012 79.91434479 -180.57949829 79.89839172 C-188.34842649 79.84161033 -188.34842649 79.84161033 -195.1875 83.23828125 Z M-221.1875 384.23828125 C-222.58900555 406.09769849 -222.58900555 406.09769849 -214.1875 425.23828125 C-204.61757252 433.47092629 -192.23636465 432.52692202 -180.37280273 432.49224854 C-178.65553118 432.49455474 -176.9382606 432.49773234 -175.22099209 432.50170302 C-170.51562007 432.51003762 -165.81032938 432.5059318 -161.1049571 432.49973059 C-156.02513553 432.49520165 -150.94532784 432.50219206 -145.86550903 432.50769043 C-135.91948472 432.51658134 -125.9734906 432.51466375 -116.02746511 432.50886515 C-107.94375311 432.50434748 -99.86004957 432.50373621 -91.77633667 432.50591278 C-90.05023813 432.50637248 -90.05023813 432.50637248 -88.28926891 432.50684147 C-85.9515423 432.50748092 -83.61381568 432.50812935 -81.27608907 432.50878665 C-59.35776765 432.51448906 -37.43946295 432.50793344 -15.52114427 432.49718592 C3.28376376 432.48825049 22.0886471 432.48980256 40.89355469 432.49902344 C62.73371633 432.50972763 84.57386331 432.51393974 106.41402721 432.50779891 C108.74313036 432.50716182 111.07223352 432.50653307 113.40133667 432.50591278 C114.54728524 432.50560423 115.69323382 432.50529568 116.8739081 432.50497778 C124.94744663 432.50325129 133.02097585 432.50616496 141.09451294 432.51087189 C150.93410032 432.51648237 160.7736558 432.51496072 170.61323953 432.5043104 C175.63304542 432.49905597 180.65279812 432.4969931 185.67260361 432.5036087 C190.26920319 432.50957493 194.86570034 432.50628187 199.46229064 432.4956536 C201.12367714 432.49342244 202.78507232 432.49454948 204.44645321 432.49940518 C220.08451427 432.87197213 220.08451427 432.87197213 233.8125 426.23828125 C245.8700819 414.09395416 242.8125 401.97694972 242.8125 384.23828125 C195.2925 384.23828125 147.7725 384.23828125 98.8125 384.23828125 C98.4825 389.18828125 98.1525 394.13828125 97.8125 399.23828125 C95.57109038 405.5314698 92.43367669 409.56873971 86.8125 413.23828125 C83.03072071 415.02277337 80.04228214 415.49217189 75.87419128 415.50570679 C74.68406937 415.51423676 73.49394745 415.52276672 72.26776123 415.53155518 C70.9705011 415.5306488 69.67324097 415.52974243 68.33666992 415.52880859 C66.9499119 415.53479623 65.5631572 415.54160232 64.17640686 415.54916382 C60.41593726 415.56680836 56.65555872 415.57151857 52.89505172 415.57279539 C50.54328389 415.57421856 48.19153909 415.57849132 45.83977699 415.58378983 C37.62843993 415.60228581 29.41716775 415.61046108 21.20581055 415.60888672 C13.56280641 415.60768581 5.92008489 415.6287792 -1.72284776 415.66037405 C-8.29373332 415.68656502 -14.86452675 415.69725282 -21.43546408 415.6959759 C-25.35596545 415.69546704 -29.27621564 415.70110758 -33.19666481 415.722332 C-36.88630063 415.74176192 -40.57544693 415.74180692 -44.26510048 415.72729874 C-46.25548308 415.72422607 -48.24586597 415.74085426 -50.23617554 415.75817871 C-58.29726168 415.70175846 -63.9299423 414.91227409 -70.2109375 409.4921875 C-70.87996094 408.65494141 -70.87996094 408.65494141 -71.5625 407.80078125 C-72.25472656 406.96740234 -72.25472656 406.96740234 -72.9609375 406.1171875 C-77.6702559 398.9032316 -76.56362416 393.59641891 -77.1875 384.23828125 C-124.7075 384.23828125 -172.2275 384.23828125 -221.1875 384.23828125 Z " fill="#B3404A" transform="translate(245.1875,31.76171875)"/>
<path d="M0 0 C1.11761719 0.18304688 2.23523438 0.36609375 3.38671875 0.5546875 C31.99270489 5.93699848 56.25132342 20.01079182 77 40 C77.70511719 40.64195313 78.41023437 41.28390625 79.13671875 41.9453125 C102.13480664 63.49727316 117.8316527 99.247788 119.10498047 130.58349609 C119.44625745 142.888545 119.03083335 154.85380565 117 167 C116.74283203 168.76923828 116.74283203 168.76923828 116.48046875 170.57421875 C111.67790849 199.23465902 96.23816444 224.6512445 76 245 C75.51805176 245.48597656 75.03610352 245.97195313 74.53955078 246.47265625 C66.79009259 254.17750192 58.30908625 260.30908901 49 266 C47.89785156 266.68835938 46.79570312 267.37671875 45.66015625 268.0859375 C13.55452517 286.69469961 -26.29676896 290.96399369 -61.953125 281.74609375 C-98.95476319 271.64249539 -130.53986672 247.45157879 -150.0402832 214.42626953 C-155.56157142 204.71024326 -159.51508066 194.59673623 -163 184 C-163.33773437 182.98808594 -163.67546875 181.97617188 -164.0234375 180.93359375 C-174.98164066 146.26878278 -169.40845235 107.09264376 -153.0546875 75.15380859 C-146.38250291 62.45021325 -137.82610785 51.41036291 -128 41 C-127.37738281 40.32453125 -126.75476563 39.6490625 -126.11328125 38.953125 C-94.25978401 5.5637149 -44.72390097 -7.65587904 0 0 Z M-104 42 C-105.33087231 43.00327297 -106.66338562 44.00438975 -108 45 C-106.59155282 48.21524305 -104.89655214 50.32183868 -102.375 52.75 C-101.74335938 53.36359375 -101.11171875 53.9771875 -100.4609375 54.609375 C-99.97882813 55.06828125 -99.49671875 55.5271875 -99 56 C-100.47721422 59.45201639 -102.43794001 61.64961936 -105.125 64.25 C-105.84945312 64.95640625 -106.57390625 65.6628125 -107.3203125 66.390625 C-107.87460938 66.92171875 -108.42890625 67.4528125 -109 68 C-112.21524305 66.59155282 -114.32183868 64.89655214 -116.75 62.375 C-117.36359375 61.74335937 -117.9771875 61.11171875 -118.609375 60.4609375 C-119.29773438 59.73777344 -119.29773438 59.73777344 -120 59 C-123.89137821 60.29712607 -125.29083716 62.64927423 -127.5625 65.875 C-127.99723633 66.49213867 -128.43197266 67.10927734 -128.87988281 67.74511719 C-142.1869036 87.15557382 -152 110.15695786 -152 134 C-147.05 134 -142.1 134 -137 134 C-137 139.28 -137 144.56 -137 150 C-141.95 150 -146.9 150 -152 150 C-150.79204635 176.2729918 -141.07888168 200.28640741 -125 221 C-123.99819179 222.33197526 -122.99754281 223.66482731 -122 225 C-118.78475695 223.59155282 -116.67816132 221.89655214 -114.25 219.375 C-113.63640625 218.74335938 -113.0228125 218.11171875 -112.390625 217.4609375 C-111.70226562 216.73777344 -111.70226562 216.73777344 -111 216 C-107.54798361 217.47721422 -105.35038064 219.43794001 -102.75 222.125 C-102.04359375 222.84945312 -101.3371875 223.57390625 -100.609375 224.3203125 C-100.07828125 224.87460937 -99.5471875 225.42890625 -99 226 C-100.40844718 229.21524305 -102.10344786 231.32183868 -104.625 233.75 C-105.57246094 234.67039062 -105.57246094 234.67039062 -106.5390625 235.609375 C-107.02117187 236.06828125 -107.50328125 236.5271875 -108 237 C-106.70287393 240.89137821 -104.35072577 242.29083716 -101.125 244.5625 C-100.50786133 244.99723633 -99.89072266 245.43197266 -99.25488281 245.87988281 C-79.84442618 259.1869036 -56.84304214 269 -33 269 C-33 264.05 -33 259.1 -33 254 C-27.72 254 -22.44 254 -17 254 C-17 258.95 -17 263.9 -17 269 C9.2729918 267.79204635 33.28640741 258.07888168 54 242 C55.33197526 240.99819179 56.66482731 239.99754281 58 239 C56.59155282 235.78475695 54.89655214 233.67816132 52.375 231.25 C51.74335938 230.63640625 51.11171875 230.0228125 50.4609375 229.390625 C49.97882813 228.93171875 49.49671875 228.4728125 49 228 C50.47721422 224.54798361 52.43794001 222.35038064 55.125 219.75 C55.84945312 219.04359375 56.57390625 218.3371875 57.3203125 217.609375 C58.15175781 216.81273437 58.15175781 216.81273437 59 216 C62.21524305 217.40844718 64.32183868 219.10344786 66.75 221.625 C67.36359375 222.25664062 67.9771875 222.88828125 68.609375 223.5390625 C69.06828125 224.02117187 69.5271875 224.50328125 70 225 C73.89137821 223.70287393 75.29083716 221.35072577 77.5625 218.125 C77.99723633 217.50786133 78.43197266 216.89072266 78.87988281 216.25488281 C92.1869036 196.84442618 102 173.84304214 102 150 C97.05 150 92.1 150 87 150 C87 144.72 87 139.44 87 134 C91.95 134 96.9 134 102 134 C100.79204635 107.7270082 91.07888168 83.71359259 75 63 C73.99819179 61.66802474 72.99754281 60.33517269 72 59 C68.78475695 60.40844718 66.67816132 62.10344786 64.25 64.625 C63.32960938 65.57246094 63.32960938 65.57246094 62.390625 66.5390625 C61.93171875 67.02117187 61.4728125 67.50328125 61 68 C57.54798361 66.52278578 55.35038064 64.56205999 52.75 61.875 C52.04359375 61.15054688 51.3371875 60.42609375 50.609375 59.6796875 C49.81273437 58.84824219 49.81273437 58.84824219 49 58 C50.40844718 54.78475695 52.10344786 52.67816132 54.625 50.25 C55.25664062 49.63640625 55.88828125 49.0228125 56.5390625 48.390625 C57.02117187 47.93171875 57.50328125 47.4728125 58 47 C56.70287393 43.10862179 54.35072577 41.70916284 51.125 39.4375 C50.50786133 39.00276367 49.89072266 38.56802734 49.25488281 38.12011719 C29.84442618 24.8130964 6.84304214 15 -17 15 C-17 19.95 -17 24.9 -17 30 C-22.28 30 -27.56 30 -33 30 C-33 25.05 -33 20.1 -33 15 C-58.55444166 15 -84.23863549 26.29968654 -104 42 Z " fill="#B3404A" transform="translate(281,66)"/>
<path d="M0 0 C0.82757813 0.20898926 1.65515625 0.41797852 2.5078125 0.63330078 C26.43852282 6.81509224 48.30877327 17.73341516 67 34 C67.93972656 34.80695313 68.87945312 35.61390625 69.84765625 36.4453125 C96.85703881 60.11201493 114.80259126 92.68996817 121 128 C121.33644531 129.82144531 121.33644531 129.82144531 121.6796875 131.6796875 C124.43092143 148.90316567 123.60856112 166.80585568 121 184 C120.89236328 184.71510742 120.78472656 185.43021484 120.67382812 186.16699219 C116.63670475 211.13101213 104.89167902 235.46063222 89 255 C88.55285645 255.55397461 88.10571289 256.10794922 87.64501953 256.67871094 C61.03830286 289.43246514 23.94625792 310.34550216 -18.125 315.25 C-58.98663837 319.30218326 -100.98824168 310.0800672 -133.66015625 284.171875 C-136.85863066 281.53948197 -139.92890642 278.77940219 -143 276 C-143.85722656 275.27425781 -144.71445313 274.54851562 -145.59765625 273.80078125 C-172.25970426 250.94156101 -187.99518121 217.92221234 -195 184 C-195.20882812 183.01257813 -195.41765625 182.02515625 -195.6328125 181.0078125 C-202.74588179 140.8339986 -192.13550441 98.20804406 -169 65 C-160.69885307 53.25204404 -151.23142787 42.04139989 -140 33 C-138.65615234 31.88238281 -138.65615234 31.88238281 -137.28515625 30.7421875 C-99.37635574 0.24305166 -47.37179053 -12.30497346 0 0 Z M-68 15 C-69.83691406 15.40025391 -69.83691406 15.40025391 -71.7109375 15.80859375 C-98.24819669 22.174141 -120.39948702 36.37378153 -140 55 C-140.63421875 55.56976563 -141.2684375 56.13953125 -141.921875 56.7265625 C-159.75239892 73.28347757 -170.91327566 97.95344828 -177 121 C-177.34289062 122.14210938 -177.68578125 123.28421875 -178.0390625 124.4609375 C-181.53519158 137.3369251 -181.3577395 150.76927236 -181 164 C-180.97035156 165.24910156 -180.94070312 166.49820313 -180.91015625 167.78515625 C-179.22201289 203.647909 -159.88963689 239.56326961 -133.67919922 263.5234375 C-102.40953551 291.01964658 -64.68253146 301.7809046 -23.64550781 299.89160156 C14.44925824 297.43560959 49.57794621 276.37029608 74.33984375 248.21875 C83.02244362 237.95836142 89.52357043 226.22147505 95 214 C95.47397217 212.94256592 95.47397217 212.94256592 95.95751953 211.86376953 C107.73115012 185.01554683 110.69397228 153.56479552 104 125 C103.58234375 123.12828125 103.58234375 123.12828125 103.15625 121.21875 C96.95607515 95.77665321 83.88075683 73.94732829 66 55 C65.32710937 54.26265625 64.65421875 53.5253125 63.9609375 52.765625 C39.25439243 26.67107178 1.8807571 12.76806625 -33.5078125 11.796875 C-45.36485875 11.63404936 -56.45000361 12.30734483 -68 15 Z " fill="#F2B0AE" transform="translate(293,52)"/>
<path d="M0 0 C5.28 0 10.56 0 16 0 C15.56627075 3.70126099 15.56627075 3.70126099 15.1237793 7.47729492 C13.8606468 19.02227344 13.13330377 30.58374965 12.6875 42.1875 C12.62699022 43.74823494 12.62699022 43.74823494 12.56525803 45.34049988 C11.67551278 72.32389452 14.02055638 93.3907054 32.66011238 113.90546227 C37.39942176 118.94209441 42.40419738 123.64696048 47.5625 128.25 C48.29107082 128.90067318 49.01964165 129.55134636 49.77029037 130.22173691 C58.84505187 138.25788312 68.23337354 145.82342347 78 153 C76.30413874 156.63303084 74.26199512 158.94549046 71.375 161.75 C70.55773437 162.54921875 69.74046875 163.3484375 68.8984375 164.171875 C68.27195312 164.77515625 67.64546875 165.3784375 67 166 C62.79629957 164.356683 59.98272839 161.25667024 56.87036133 158.11328125 C56.26666214 157.51148041 55.66296295 156.90967957 55.04096985 156.28964233 C53.04973962 154.30211246 51.06579368 152.30748141 49.08203125 150.3125 C47.70045326 148.92972986 46.31850536 147.54732922 44.936203 146.1652832 C42.04233123 143.26984792 39.15184909 140.37108497 36.26391602 137.46972656 C32.55652353 133.74532068 28.84255841 130.02755538 25.12627125 126.31202698 C22.27361554 123.45909979 19.42357017 120.6035772 16.57440758 117.74716187 C15.20542284 116.37498895 13.83582629 115.00342615 12.46561623 113.63247681 C10.55502855 111.71972853 8.6477659 109.80372828 6.74145508 107.88671875 C6.17158875 107.3173056 5.60172241 106.74789246 5.0145874 106.16122437 C1.52115495 102.63898802 -0.12645445 100.91065317 -0.12025452 95.96310425 C-0.12162918 95.11893951 -0.12300385 94.27477478 -0.12442017 93.4050293 C-0.12082489 92.477146 -0.11722961 91.5492627 -0.11352539 90.59326172 C-0.11367142 89.61761261 -0.11381744 88.6419635 -0.1139679 87.63674927 C-0.11326935 84.40103966 -0.10547966 81.1653871 -0.09765625 77.9296875 C-0.09579186 75.69052156 -0.09436806 73.45135521 -0.09336853 71.21218872 C-0.08954498 65.31027099 -0.07971607 59.40837776 -0.06866455 53.50646973 C-0.05844694 47.48738944 -0.05387016 41.4683052 -0.04882812 35.44921875 C-0.03809367 23.63280172 -0.02101918 11.81640289 0 0 Z " fill="#B34049" transform="translate(248,112)"/>
<path d="M0 0 C47.52 0 95.04 0 144 0 C144 11.55555556 144 11.55555556 141 15 C137.93022173 16.02325942 135.83244355 16.13060974 132.61695862 16.14044189 C131.49953278 16.14615204 130.38210693 16.15186218 129.2308197 16.15774536 C128.00424149 16.15886322 126.77766327 16.15998108 125.51391602 16.16113281 C123.57705933 16.16858017 123.57705933 16.16858017 121.60107422 16.17617798 C118.05770838 16.18929322 114.51436148 16.19574493 110.97097516 16.20018864 C108.75761933 16.20312008 106.54426868 16.20722497 104.33091545 16.21169281 C97.40683598 16.2253639 90.48276834 16.23503311 83.5586763 16.2388947 C75.56355038 16.24337811 67.56859519 16.26094063 59.5735212 16.2898953 C53.39425256 16.31149807 47.21503202 16.32159819 41.03572601 16.32293582 C37.3445113 16.32398464 33.65345717 16.32990879 29.96228218 16.34775543 C25.84657514 16.36726819 21.73122663 16.3629528 17.61547852 16.35644531 C16.39092453 16.3656601 15.16637054 16.37487488 13.90470886 16.3843689 C12.22434036 16.37601517 12.22434036 16.37601517 10.51002502 16.36749268 C9.05021886 16.36969252 9.05021886 16.36969252 7.56092167 16.3719368 C4.53417679 15.93234592 3.18357476 15.11546467 1 13 C0 10 0 10 0 0 Z " fill="#F3B1AF" transform="translate(184,416)"/>
</svg>
