<svg width="50" height="50" viewBox="0 0 50 50" fill="none" xmlns="http://www.w3.org/2000/svg">
<path d="M48.9976 30.7253V7.99854C48.9976 5.2417 46.7544 2.99854 43.9976 2.99854H5.99756C3.24072 2.99854 0.997559 5.2417 0.997559 7.99854V34.6187C0.997559 37.3755 3.24072 39.6187 5.99756 39.6187H19.0334L17.5388 45.0015H12.5444C11.9917 45.0015 11.5444 45.4487 11.5444 46.0015C11.5444 46.5542 11.9917 47.0015 12.5444 47.0015H18.2993H31.7056H37.4604C38.0132 47.0015 38.4604 46.5542 38.4604 46.0015C38.4604 45.4487 38.0132 45.0015 37.4604 45.0015H32.4661L30.9714 39.6187H43.9976C46.7544 39.6187 48.9976 37.3755 48.9976 34.6187V30.7737C48.9978 30.7651 49.0024 30.7581 49.0024 30.7495C49.0024 30.741 48.9978 30.7339 48.9976 30.7253ZM5.99756 4.99854H43.9976C45.6519 4.99854 46.9976 6.34424 46.9976 7.99854V29.7495H26.4155V29.1167C26.4155 28.6538 26.0972 28.2505 25.647 28.144L24.0889 27.774C23.9553 27.3857 23.7976 27.0105 23.6152 26.6472L24.4419 25.3032C24.6851 24.9097 24.6245 24.3999 24.2974 24.0727L22.0415 21.8159C21.7144 21.4868 21.2017 21.4302 20.8091 21.6724L19.449 22.5128C19.082 22.3313 18.7026 22.1755 18.3098 22.0449L17.9468 20.518C17.8394 20.0678 17.437 19.7495 16.9741 19.7495H13.7925C13.3296 19.7495 12.9263 20.0679 12.8198 20.519L12.4517 22.0703C12.0605 22.2038 11.6802 22.3634 11.3101 22.5497L9.9751 21.7251C9.5835 21.4819 9.07276 21.5405 8.74365 21.8677L6.49267 24.1147C6.16357 24.4429 6.104 24.9536 6.34814 25.3481L7.18798 26.7083C7.0039 27.0791 6.84667 27.4608 6.71508 27.8547L5.18993 28.2163C4.73876 28.3228 4.4204 28.7251 4.4204 29.189V29.7495H2.99756V7.99854C2.99756 6.34424 4.34326 4.99854 5.99756 4.99854ZM20.3704 29.7495C19.9016 27.4192 17.8518 25.6528 15.3823 25.6528C12.9106 25.6528 10.8469 27.4165 10.3801 29.7495H7.38965C7.48965 29.679 8.25613 29.7093 8.45361 28.9507C8.61572 28.3188 8.86474 27.7163 9.19091 27.1587C9.35793 26.8744 9.35392 26.4122 9.17919 26.1274L8.46532 24.9712L9.59716 23.8423C10.1816 24.0558 10.9285 25.0505 11.7681 24.5532C12.3286 24.2212 12.9292 23.9683 13.5542 23.8032C13.5659 23.8 13.574 23.7913 13.5857 23.7876C14.4937 23.5121 14.29 22.4082 14.5825 21.7495H16.1841C16.4868 22.9453 16.4679 23.4587 17.0852 23.7197C17.1301 23.7386 17.1665 23.7702 17.2153 23.7827C17.8491 23.9468 18.4487 24.1938 18.9975 24.5161C19.3184 24.705 19.7298 24.6798 20.0151 24.5097C20.0198 24.5071 20.0251 24.5073 20.0298 24.5044L21.187 23.7895L22.3247 24.9282L21.6216 26.0727C21.4753 26.3093 21.4376 26.6655 21.5686 26.9781C21.5862 27.02 21.5891 27.0647 21.6128 27.105C21.937 27.6538 22.189 28.2524 22.3608 28.8843C22.3799 28.9538 22.4165 29.0121 22.4482 29.0737C22.4626 29.1018 22.4705 29.1322 22.4875 29.1588C22.5542 29.2627 22.6355 29.3533 22.7324 29.4248C22.739 29.4295 22.7476 29.4315 22.7541 29.4361C22.8479 29.5017 22.9521 29.5478 23.063 29.5783C23.0747 29.5816 23.0832 29.5903 23.0952 29.5932L23.7534 29.7495L20.3704 29.7495ZM18.3198 29.7495H12.4448C12.8628 28.5308 14.022 27.6528 15.3823 27.6528C16.7427 27.6528 17.9019 28.5308 18.3198 29.7495ZM30.3901 45.0015H19.6147L21.1099 39.6186H28.895L30.3901 45.0015ZM43.9976 37.6186H5.99756C4.34326 37.6186 2.99756 36.2729 2.99756 34.6186V31.7495C11.6242 31.7495 38.2004 31.7495 46.9976 31.7495V34.6186C46.9976 36.2729 45.6519 37.6186 43.9976 37.6186Z" fill="#922E31"/>
<path d="M35.9604 20.7759C38.0405 20.7759 39.7319 19.0806 39.7319 16.9976C39.7319 14.9136 38.0405 13.2183 35.9604 13.2183C33.8813 13.2183 32.1899 14.9136 32.1899 16.9976C32.1899 19.0806 33.8813 20.7759 35.9604 20.7759ZM35.9604 15.2183C36.937 15.2183 37.7319 16.0161 37.7319 16.9976C37.7319 17.978 36.937 18.7759 35.9604 18.7759C34.9839 18.7759 34.1899 17.978 34.1899 16.9976C34.1899 16.0161 34.9839 15.2183 35.9604 15.2183Z" fill="#922E31"/>
<path d="M26.7348 19.4439L28.082 19.7642C28.1938 20.0842 28.3237 20.395 28.4726 20.6983L27.7553 21.8706C27.5151 22.2632 27.5747 22.77 27.8999 23.0972L29.9292 25.1372C30.1225 25.3316 30.3794 25.4321 30.6382 25.4321C30.8198 25.4321 31.0024 25.3823 31.1655 25.2817L32.3408 24.5519C32.6433 24.6997 32.9536 24.828 33.2736 24.9377L33.5884 26.2651C33.6948 26.7163 34.0971 27.0347 34.561 27.0347H37.4233C37.8872 27.0347 38.2895 26.7163 38.396 26.2651L38.7158 24.9132C39.0356 24.8013 39.3469 24.6702 39.6513 24.519L40.8032 25.2339C40.9663 25.3354 41.1489 25.3843 41.3305 25.3843C41.5893 25.3843 41.8452 25.2837 42.0385 25.0903L44.0639 23.0591C44.3901 22.7319 44.4497 22.2231 44.2075 21.8296L43.479 20.6441C43.6286 20.3355 43.7585 20.0191 43.8691 19.6926L45.186 19.3804C45.6372 19.2739 45.9555 18.8716 45.9555 18.4077V15.5278C45.9555 15.0649 45.6382 14.6626 45.188 14.5552L43.8452 14.2345C43.7329 13.9106 43.6013 13.5961 43.4499 13.2888L44.1616 12.1294C44.4028 11.7358 44.3442 11.229 44.019 10.9019L41.9975 8.86279C41.6694 8.53174 41.1567 8.47119 40.7602 8.71728L39.5845 9.44677C39.2803 9.29858 38.969 9.17028 38.6494 9.06091L38.3384 7.73193C38.2329 7.27978 37.8296 6.95947 37.3647 6.95947H34.4946C34.0307 6.95947 33.6274 7.27881 33.521 7.72998L33.2004 9.08789C32.883 9.19995 32.5757 9.32983 32.2768 9.47852L31.1186 8.76026C30.7231 8.51417 30.2104 8.57374 29.8813 8.90479L27.8599 10.94C27.5356 11.2671 27.4761 11.7739 27.7173 12.1675L28.4448 13.3558C28.2949 13.6665 28.1658 13.9813 28.0566 14.302L26.7339 14.6177C26.2837 14.7251 25.9663 15.1275 25.9663 15.5903V18.4712C25.9663 18.9341 26.2846 19.3374 26.7348 19.4439ZM30.7407 10.8784C31.1631 11.0231 31.927 11.9697 32.7407 11.481C33.7524 10.874 34.3745 10.8788 34.6836 10.617C34.8491 10.4801 34.9753 10.2744 35.0219 10.0796L35.2856 8.95949H36.5717L36.8286 10.0572C37.0271 10.91 37.8107 10.6783 39.1362 11.4517C39.9023 11.8975 40.5208 11.1161 41.1382 10.8365L42.0464 11.7525C41.6615 12.4039 41.0623 13.0959 41.4467 13.7447C42.6795 15.8334 41.3976 15.6411 43.9555 16.3169V17.6167C42.1297 18.1785 42.5939 17.4578 41.4306 20.3257C41.1061 21.1162 41.8805 21.6483 42.0913 22.2046L41.1831 23.1157C39.4441 22.1246 40.2543 22.1179 37.4997 23.2385C36.7823 23.5305 36.8694 24.295 36.6323 25.0347H35.352C34.842 23.1937 35.4158 23.6366 32.6621 22.5037C31.9448 22.2057 31.4734 22.8078 30.7866 23.1626L29.8716 22.2437C30.8455 20.5907 30.8623 21.1472 29.7522 18.5369C29.4179 17.7505 28.4914 17.9175 27.9663 17.6812V16.3794C30.4776 15.7631 29.1686 16.0443 30.4507 13.7954C30.8338 13.1229 30.2285 12.4636 29.8325 11.7925L30.7407 10.8784Z" fill="#922E31"/>
</svg>
