<svg
	xmlns="http://www.w3.org/2000/svg"
	width="18"
	height="18"
	viewBox="0 0 18 18"
	fill="none"
>
	<path
		d="M15.9834 5.1589L12.8412 2.01734C12.7367 1.91285 12.6127 1.82996 12.4762 1.7734C12.3397 1.71685 12.1933 1.68774 12.0456 1.68774C11.8978 1.68774 11.7515 1.71685 11.615 1.7734C11.4785 1.82996 11.3545 1.91285 11.25 2.01734L2.57977 10.6876C2.47485 10.7917 2.39167 10.9156 2.33506 11.0521C2.27844 11.1886 2.24953 11.335 2.25001 11.4828V14.6251C2.25001 14.9234 2.36853 15.2096 2.57951 15.4206C2.79049 15.6315 3.07664 15.7501 3.37501 15.7501H15.1875C15.3367 15.7501 15.4798 15.6908 15.5853 15.5853C15.6907 15.4798 15.75 15.3368 15.75 15.1876C15.75 15.0384 15.6907 14.8953 15.5853 14.7898C15.4798 14.6843 15.3367 14.6251 15.1875 14.6251H8.10844L15.9834 6.75007C16.0879 6.6456 16.1708 6.52157 16.2274 6.38507C16.2839 6.24856 16.313 6.10225 16.313 5.95449C16.313 5.80673 16.2839 5.66042 16.2274 5.52391C16.1708 5.3874 16.0879 5.26337 15.9834 5.1589ZM6.51727 14.6251H3.37501V11.4828L9.56251 5.29531L12.7048 8.43757L6.51727 14.6251ZM13.5 7.64234L10.3584 4.50007L12.0459 2.81257L15.1875 5.95484L13.5 7.64234Z"
		fill="#912E31"
	/>
</svg>